<svg xmlns="http://www.w3.org/2000/svg" viewBox="0 0 64 64">
  <rect width="64" height="64" rx="32" fill="#ffffff"/>
  <path d="M30.3 8.4c10.2 11.8 15.3 20.3 15.3 29.7 0 10.8-7 18.1-16.7 18.1s-16.6-7.3-16.6-18.1c0-9.4 6.8-19.8 18-29.7Z" fill="#0ea5e9"/>
  <path d="M40.4 19.7c7.9.8 13.8 5.2 16 12.3-9.8-.3-17.2 3.4-22 10.9-2.6-7.7-.6-15.6 6-23.2Z" fill="#16a34a"/>
  <path d="M23.3 47.1c9.3 1.6 17.8-3.4 25.4-15" fill="none" stroke="#fff" stroke-linecap="round" stroke-width="4"/>
  <path d="M8 35.8c4.7-2.5 9.5-3.3 14.3-2.5" fill="none" stroke="#16a34a" stroke-linecap="round" stroke-width="3"/>
</svg>
